# xmcd CD database file
#
# Track frame offsets:
#	150
#	20127
#	37122
#	56007
#	74690
#	92247
#	114437
#	131092
#	152355
#	171562
#	189065
#
# Disc length: 2779 seconds
#
# Revision: 0
# Processed by: cddbd v1.4PL0 Copyright (c) Steve Scherf et al.
# Submitted via: CDex 1.50Beta5
#
DISCID=9b0ad90b
DTITLE=Lotta Wenglén - Paintbrush
DYEAR=2002
DGENRE=Jazz
TTITLE0=Easy Lovin'
TTITLE1=Sunken Treasure
TTITLE2=My Cloud
TTITLE3=Caretaker
TTITLE4=Nailpolish
TTITLE5=Two Faced Liar
TTITLE6=Paintbrush
TTITLE7=Ambassador of Love
TTITLE8=Stranger
TTITLE9=Buzz
TTITLE10=Pretty Much
EXTD=YEAR: 2002
EXTT0=
EXTT1=
EXTT2=
EXTT3=
EXTT4=
EXTT5=
EXTT6=
EXTT7=
EXTT8=
EXTT9=
EXTT10=
PLAYORDER=
